<svg width="146" height="146" viewBox="0 0 146 146" fill="none" xmlns="http://www.w3.org/2000/svg">
<path fill-rule="evenodd" clip-rule="evenodd" d="M67.4315 127.122C55.4937 128.373 40.6272 128.534 22.168 126.907L39.8333 101.674C72.8434 105.869 114.329 106.28 121.925 85.3621C121.925 93.4199 117.096 105.468 107.834 113.409C102.838 117.692 94.1114 122.422 79.4931 125.326L81.6222 118.773L73.1705 124.914L64.7189 118.773L67.4315 127.122Z" fill="#CE1126"/>
<path d="M68.5194 123.962L73.1802 127.371L77.8622 123.991L76.0607 129.477L80.7215 132.886L74.9473 132.868L73.1458 138.354L71.3787 132.857L65.6045 132.839L70.2865 129.459L68.5194 123.962Z" fill="#FCD116"/>
<path d="M35.6735 94.3414C89.4437 101.697 117.362 96.1517 120.518 81.6079C110.213 88.8143 57.0281 73.9524 15.8147 60.5779L35.6735 94.3414Z" fill="#0038A8"/>
<path d="M116.742 79.6338C105.127 81.6232 79.994 76.2711 53.0758 68.6423L42.3023 62.3717L42.2565 58.6362L55.8144 68.1022C56.0845 67.7066 56.3678 67.3207 56.6635 66.9451L42.217 55.417L42.137 48.875L48.6794 48.955L60.2091 63.4036C60.585 63.1083 60.9712 62.8255 61.3671 62.5559L51.8986 48.9944L55.6341 49.0401L62.936 61.5855C64.3468 60.7963 65.8581 60.1652 67.4458 59.716L63.7484 45.7209L66.3575 43.0471L69.2447 59.2922C69.713 59.2036 70.1868 59.1305 70.6655 59.0735L68.606 40.743L73.1754 36.0603L77.7451 40.743L75.6855 59.0735C76.1642 59.1305 76.638 59.2036 77.1063 59.2922L79.9934 43.0471L82.6024 45.7209L78.9051 59.716C80.5393 60.1783 82.0926 60.8334 83.5388 61.6552L90.8813 49.0401L94.6168 48.9944L85.0951 62.6321C85.4875 62.903 85.8702 63.1869 86.2427 63.4832L97.836 48.955L104.378 48.875L104.298 55.4172L89.7507 67.0257C90.0429 67.4005 90.3227 67.7855 90.5895 68.18L104.259 58.6362L104.213 62.3717L91.5493 69.7425C92.3251 71.1386 92.9464 72.6324 93.3901 74.2008L107.385 70.5034L110.059 73.1124L93.8138 75.9996C93.9025 76.4679 93.9756 76.9416 94.0326 77.4203L112.363 75.3608L116.742 79.6338Z" fill="#FCD116"/>
<path d="M11.9885 33.5838L17.6391 34.7722L20.5154 29.7654L21.1313 35.5067L26.7819 36.695L21.512 39.055L22.1279 44.7962L18.255 40.5135L12.985 42.8734L15.8614 37.8666L11.9885 33.5838Z" fill="#FCD116"/>
<path fill-rule="evenodd" clip-rule="evenodd" d="M47.3312 30.414C58.4378 24.3343 80.2219 14.7545 132.091 24.799C132.425 24.799 132.751 24.9063 133.03 25.1078C133.309 25.3092 133.528 25.5961 133.662 25.933C133.794 26.27 133.835 26.6424 133.778 27.0044C133.722 27.3665 133.57 27.7025 133.343 27.9711L129.197 32.8696L127.894 33.1324L122.765 24.0315L121.565 34.4092L111.325 36.4751L120.824 40.823L120.564 43.0684L118.598 45.3909C118.278 45.7693 117.89 46.071 117.459 46.2772C117.028 46.4834 116.563 46.5896 116.093 46.5894C114.751 46.3525 113.224 46.182 111.78 46.0207C110.727 45.9031 109.717 45.7903 108.854 45.6602C100.883 44.4578 92.3231 43.5166 83.8667 43.0636L73.1746 32.3715L62.4005 43.1455C44.9288 44.4384 31.0606 49.2229 28.7382 60.1026C26.4364 55.0148 33.196 38.1516 47.3312 30.414Z" fill="url(#paint0_linear_152_537)"/>
<path d="M124.037 30.3357L126.872 35.366L132.532 34.2241L128.624 38.4749L131.459 43.5051L126.209 41.102L122.301 45.3527L122.964 39.6167L117.713 37.2136L123.374 36.0717L124.037 30.3357Z" fill="#FCD116"/>
<defs>
<linearGradient id="paint0_linear_152_537" x1="37.2022" y1="61.0482" x2="61.2153" y2="-3.33081" gradientUnits="userSpaceOnUse">
<stop offset="0.08" stop-color="#9945FF"/>
<stop offset="0.3" stop-color="#8752F3"/>
<stop offset="0.5" stop-color="#5497D5"/>
<stop offset="0.6" stop-color="#43B4CA"/>
<stop offset="0.72" stop-color="#28E0B9"/>
<stop offset="0.97" stop-color="#19FB9B"/>
</linearGradient>
</defs>
</svg>
