<svg width="193" height="192" viewBox="0 0 193 192" fill="none" xmlns="http://www.w3.org/2000/svg">
<path d="M86.11 20.3541C82.0126 19.5847 78.1081 19.2 74.3964 19.2C70.781 19.2 66.9006 19.5606 62.755 20.2819C58.6577 20.9551 54.5603 22.1332 50.4629 23.8162C46.4138 25.4992 42.4851 27.7351 38.677 30.524C34.9171 33.2649 31.591 36.703 28.6987 40.8383C25.8547 44.9736 23.5649 49.8783 21.8296 55.5523C20.0942 61.1782 19.2266 67.6938 19.2266 75.0989C19.2266 82.3116 20.046 88.7069 21.685 94.2848C23.3721 99.8146 25.6136 104.647 28.4095 108.782C31.2535 112.87 34.5073 116.332 38.1708 119.169C41.8826 121.958 45.763 124.218 49.8122 125.949C53.8613 127.632 57.9346 128.834 62.032 129.555C65.3409 130.169 66.1824 130.538 69.1842 130.662C69.1858 129.795 69.1886 128.928 69.1913 128.062C69.1941 127.162 69.197 126.263 69.1985 125.367C65.5904 125.141 64.6476 124.422 61.7427 123.208C58.2238 121.669 55.1388 119.626 52.4875 117.077C49.8363 114.529 47.5948 111.571 45.763 108.205C43.9795 104.839 42.5333 101.305 41.4246 97.6026C40.3159 93.852 39.5206 90.0533 39.0385 86.2065C38.5565 82.3597 38.3155 78.6571 38.3155 75.0989C38.3155 71.3963 38.5565 67.5735 39.0385 63.6306C39.5688 59.6876 40.3882 55.8408 41.4969 52.0902C42.6538 48.3395 44.1482 44.8053 45.9799 41.4874C47.8117 38.1215 50.0532 35.1883 52.7044 32.6879C55.3557 30.1394 58.4407 28.1198 61.9597 26.6291C65.4786 25.1385 69.5036 24.3932 74.0348 24.3932C78.5178 24.3932 82.5188 25.1385 86.0377 26.6291C89.5566 28.1198 92.6417 30.1394 95.2929 32.6879C97.9442 35.1883 100.186 38.1215 102.017 41.4874C103.849 44.8053 105.319 48.3395 106.428 52.0902C107.585 55.8408 108.405 59.6876 108.887 63.6306C109.417 67.5735 109.682 71.3963 109.682 75.0989C109.682 77.4364 109.573 79.8231 109.356 82.259C113.437 89.4447 113.396 102.446 113.354 115.793C113.354 115.959 113.353 116.126 113.352 116.292C115.693 114.081 117.82 111.578 119.732 108.782C122.528 104.647 124.746 99.8146 126.385 94.2848C128.024 88.7069 128.843 82.3116 128.843 75.0989C128.843 67.9342 128 61.587 126.312 56.0572C124.673 50.5274 122.456 45.6949 119.66 41.5595C116.864 37.4242 113.611 33.9381 109.899 31.1011C106.235 28.216 102.379 25.9079 98.3298 24.1768C94.3288 22.3977 90.2556 21.1234 86.11 20.3541Z" fill="white"/>
<path d="M98.7919 144.327C97.1674 142.912 95.8535 142.806 93.961 143.085C92.0685 143.365 88.84 145.686 88.0801 147.701C87.4876 149.272 87.415 150.989 88.0129 152.532L99.8334 149.209L99.8309 149.204L101.62 148.701C100.984 147.268 100.321 145.659 98.7919 144.327Z" fill="white"/>
<path d="M67.1304 100.496L50.0618 105.526C47.8426 99.1942 50.5266 92.7447 55.6464 91.6474C57.0036 91.3565 58.5938 91.4128 60.397 91.9794C63.7244 93.025 65.8187 95.9069 67.1304 100.496Z" fill="white"/>
<path d="M131.308 159.173L131.238 159.185L102.245 167.298C105.087 162.324 105.972 155.784 104.59 150.189C103.791 146.951 102.229 143.984 99.8336 141.798L112.497 138.35L131.976 132.681C133.415 132.305 135.202 132.619 137.145 134.373C140.646 137.534 141.78 143.169 140.648 148.482C139.524 153.756 136.245 158.276 131.308 159.173Z" fill="white"/>
<path d="M61.3358 89.3723C59.3092 88.7355 57.4572 88.6526 55.8193 89.0037L95.3559 77.8883C96.9938 77.5373 98.8458 77.6202 100.872 78.257C114.745 82.616 109.652 113.315 111.378 136.138L91.8376 141.307C86.2167 143.24 83.4716 150.014 86.8882 155.187L102.11 150.908C104.062 158.817 100.839 168.835 93.753 171.881C90.654 173.213 86.8161 173.211 82.3493 171.117C65.5773 163.251 74.4187 122.936 69.9644 101.807C68.6301 95.4779 66.1025 90.8701 61.3358 89.3723Z" fill="white"/>
<path d="M146.869 100.818L141.421 99.3655L143.633 89.4284C146.399 77.424 148.749 64.3633 150.684 50.2461C152.666 36.1413 154.005 27.7882 154.702 25.1866C155.149 23.5142 155.855 22.1842 156.818 21.1966C157.828 20.2214 158.907 19.638 160.056 19.4465C161.264 19.2209 162.306 19.1502 163.181 19.2342C164.069 19.2718 164.909 19.3961 165.701 19.6071C166.539 19.8305 167.329 20.1406 168.071 20.5374C168.872 20.9002 169.74 21.4798 170.674 22.2763C171.621 23.0263 172.265 24.0689 172.606 25.404C172.946 26.7392 172.893 28.243 172.445 29.9154C171.587 33.1208 168.554 41.3709 163.346 54.6658C158.198 67.9266 153.793 80.0913 150.13 91.1598L146.869 100.818ZM131.564 122.197C130.347 120.031 130.063 117.74 130.71 115.325C131.357 112.909 132.743 111.088 134.867 109.863C137.05 108.603 139.353 108.296 141.775 108.941C144.196 109.587 146.015 110.992 147.232 113.158C148.507 115.29 148.821 117.563 148.174 119.979C147.527 122.395 146.112 124.232 143.928 125.492C141.804 126.717 139.531 127.008 137.109 126.362C134.687 125.717 132.839 124.328 131.564 122.197Z" fill="white"/>
</svg>
