<svg width="4277" height="4277" viewBox="0 0 4277 4277" fill="none" xmlns="http://www.w3.org/2000/svg">
<path d="M4276.9 2138.6C4276.9 2590.13 4133.95 3030.07 3868.55 3395.37L2138.75 2138.6H4276.9Z" fill="url(#paint0_radial_107_538)"/>
<path d="M3650.65 3650.49C3331.37 3969.78 2919.2 4179.78 2473.23 4250.42L2138.75 2138.6L3650.65 3650.49Z" fill="url(#paint1_radial_107_538)"/>
<path d="M2138.75 4276.74C1687.22 4276.74 1247.28 4133.8 881.979 3868.39L2138.75 2138.6L2138.75 4276.74Z" fill="url(#paint2_radial_107_538)"/>
<path d="M626.852 3650.49C307.571 3331.21 97.5632 2919.05 26.928 2473.08L2138.75 2138.6L626.852 3650.49Z" fill="url(#paint3_radial_107_538)"/>
<path d="M0.603516 2138.6C0.603555 1687.06 143.549 1247.12 408.953 881.825L2138.75 2138.6L0.603516 2138.6Z" fill="url(#paint4_radial_107_538)"/>
<path d="M626.852 626.698C946.134 307.417 1358.3 97.4089 1804.27 26.7738L2138.75 2138.6L626.852 626.698Z" fill="url(#paint5_radial_107_538)"/>
<path d="M2138.75 0.450195C2590.28 0.450255 3030.22 143.396 3395.52 408.8L2138.75 2138.6L2138.75 0.450195Z" fill="url(#paint6_radial_107_538)"/>
<path d="M3650.65 626.699C3969.93 945.98 4179.94 1358.14 4250.57 1804.12L2138.75 2138.6L3650.65 626.699Z" fill="url(#paint7_radial_107_538)"/>
<defs>
<radialGradient id="paint0_radial_107_538" cx="0" cy="0" r="1" gradientUnits="userSpaceOnUse" gradientTransform="translate(2138.75 2138.6) rotate(90) scale(1576.38 1576.38)">
<stop offset="0.53" stop-color="#FCD116"/>
<stop offset="0.77" stop-color="#FCD116" stop-opacity="0.47"/>
<stop offset="1" stop-color="#FCD116" stop-opacity="0"/>
</radialGradient>
<radialGradient id="paint1_radial_107_538" cx="0" cy="0" r="1" gradientUnits="userSpaceOnUse" gradientTransform="translate(2138.75 2138.6) rotate(90) scale(1576.38 1576.38)">
<stop offset="0.53" stop-color="#FCD116"/>
<stop offset="0.77" stop-color="#FCD116" stop-opacity="0.47"/>
<stop offset="1" stop-color="#FCD116" stop-opacity="0"/>
</radialGradient>
<radialGradient id="paint2_radial_107_538" cx="0" cy="0" r="1" gradientUnits="userSpaceOnUse" gradientTransform="translate(2138.75 2138.6) rotate(90) scale(1576.38 1576.38)">
<stop offset="0.53" stop-color="#FCD116"/>
<stop offset="0.77" stop-color="#FCD116" stop-opacity="0.47"/>
<stop offset="1" stop-color="#FCD116" stop-opacity="0"/>
</radialGradient>
<radialGradient id="paint3_radial_107_538" cx="0" cy="0" r="1" gradientUnits="userSpaceOnUse" gradientTransform="translate(2138.75 2138.6) rotate(90) scale(1576.38 1576.38)">
<stop offset="0.53" stop-color="#FCD116"/>
<stop offset="0.77" stop-color="#FCD116" stop-opacity="0.47"/>
<stop offset="1" stop-color="#FCD116" stop-opacity="0"/>
</radialGradient>
<radialGradient id="paint4_radial_107_538" cx="0" cy="0" r="1" gradientUnits="userSpaceOnUse" gradientTransform="translate(2138.75 2138.6) rotate(90) scale(1576.38 1576.38)">
<stop offset="0.53" stop-color="#FCD116"/>
<stop offset="0.77" stop-color="#FCD116" stop-opacity="0.47"/>
<stop offset="1" stop-color="#FCD116" stop-opacity="0"/>
</radialGradient>
<radialGradient id="paint5_radial_107_538" cx="0" cy="0" r="1" gradientUnits="userSpaceOnUse" gradientTransform="translate(2138.75 2138.6) rotate(90) scale(1576.38 1576.38)">
<stop offset="0.53" stop-color="#FCD116"/>
<stop offset="0.77" stop-color="#FCD116" stop-opacity="0.47"/>
<stop offset="1" stop-color="#FCD116" stop-opacity="0"/>
</radialGradient>
<radialGradient id="paint6_radial_107_538" cx="0" cy="0" r="1" gradientUnits="userSpaceOnUse" gradientTransform="translate(2138.75 2138.6) rotate(90) scale(1576.38 1576.38)">
<stop offset="0.53" stop-color="#FCD116"/>
<stop offset="0.77" stop-color="#FCD116" stop-opacity="0.47"/>
<stop offset="1" stop-color="#FCD116" stop-opacity="0"/>
</radialGradient>
<radialGradient id="paint7_radial_107_538" cx="0" cy="0" r="1" gradientUnits="userSpaceOnUse" gradientTransform="translate(2138.75 2138.6) rotate(90) scale(1576.38 1576.38)">
<stop offset="0.53" stop-color="#FCD116"/>
<stop offset="0.77" stop-color="#FCD116" stop-opacity="0.47"/>
<stop offset="1" stop-color="#FCD116" stop-opacity="0"/>
</radialGradient>
</defs>
</svg>
